<svg width="1152" height="255" viewBox="0 0 1152 255" fill="none" xmlns="http://www.w3.org/2000/svg">
<rect width="1152" height="255" rx="15" fill="#FFE073"/>
<path d="M305.9 162C322.4 162 338.5 151.4 338.5 127C338.5 102.6 322.4 92 305.9 92H284V162H305.9ZM297 104H301.8C307.9 104 312.9 105.3 317.6 108.5C322.4 111.7 325.3 118.1 325.3 127C325.3 135.9 322.4 142.3 317.6 145.5C312.9 148.7 307.9 150 301.8 150H297V104ZM395.848 135.7C395.848 130 394.048 124.1 390.448 119.2C386.848 114.1 380.348 110.8 372.348 110.8C355.048 110.8 348.148 124.8 348.148 136.8C348.148 148.8 355.048 162.8 372.348 162.8C383.348 162.8 390.948 157.9 395.248 148.1L385.248 144.4C382.248 149.6 378.148 152.2 373.048 152.2C365.848 152.2 361.448 146.9 361.148 140.8H395.848V135.7ZM372.348 121.4C378.148 121.4 381.748 124.6 383.148 131H361.448C362.348 125.7 366.448 121.4 372.348 121.4ZM373.148 106L386.848 91.2H370.048L363.648 106H373.148ZM419.423 144.1C419.423 128.8 425.023 121.9 432.923 121.9C434.823 121.9 436.623 122.4 438.123 123.3L440.423 111.8C438.223 111.1 436.223 110.8 434.323 110.8C428.423 110.8 423.023 114.1 419.423 119.8V111.6H407.023V162H419.423V144.1ZM450.171 102.8C453.271 105.9 458.471 105.9 461.571 102.8C464.671 99.7 464.671 94.5 461.571 91.4C458.471 88.3 453.271 88.3 450.171 91.4C447.071 94.5 447.071 99.7 450.171 102.8ZM449.671 162H462.071V111.6H449.671V162ZM486.448 162H497.648L514.748 111.6H502.248L492.048 146.7L481.848 111.6H469.348L486.448 162ZM566.355 135.7C566.355 130 564.555 124.1 560.955 119.2C557.355 114.1 550.855 110.8 542.855 110.8C525.555 110.8 518.655 124.8 518.655 136.8C518.655 148.8 525.555 162.8 542.855 162.8C553.855 162.8 561.455 157.9 565.755 148.1L555.755 144.4C552.755 149.6 548.655 152.2 543.555 152.2C536.355 152.2 531.955 146.9 531.655 140.8H566.355V135.7ZM542.855 121.4C548.655 121.4 552.255 124.6 553.655 131H531.955C532.855 125.7 536.955 121.4 542.855 121.4ZM621.305 111.6H608.905V131.7C608.905 144.4 603.805 152.2 597.405 152.2C592.605 152.2 590.205 149.4 590.205 143.9V111.6H577.805V147.6C577.805 157.5 584.005 162.8 593.305 162.8C599.605 162.8 604.805 159.8 608.905 153.9V162H621.305V111.6ZM647.06 144.1C647.06 128.8 652.66 121.9 660.56 121.9C662.46 121.9 664.26 122.4 665.76 123.3L668.06 111.8C665.86 111.1 663.86 110.8 661.96 110.8C656.06 110.8 650.66 114.1 647.06 119.8V111.6H634.66V162H647.06V144.1ZM740.652 103.9C736.652 95.4 729.952 91.2 720.452 91.2C714.952 91.2 710.452 93 706.752 96.7C703.152 100.4 701.352 104.9 701.352 110.2C701.152 123.1 711.952 128.4 720.252 131.9C726.152 134.4 730.652 137.6 730.652 141.7C730.652 147.8 727.652 150.8 721.552 150.8C714.952 150.8 710.352 146.1 707.652 136.6L697.152 143.2C698.252 148.7 701.052 153.4 705.452 157.2C709.852 160.9 715.152 162.8 721.252 162.8C734.852 162.8 743.652 154.6 743.652 141C743.752 128.9 732.652 123.7 724.252 120C718.552 117.3 713.752 114 713.752 109.6C713.752 105.9 716.552 103.2 720.452 103.2C724.352 103.2 727.652 105.7 730.152 110.6L740.652 103.9ZM800.73 135.7C800.73 130 798.93 124.1 795.33 119.2C791.73 114.1 785.23 110.8 777.23 110.8C759.93 110.8 753.03 124.8 753.03 136.8C753.03 148.8 759.93 162.8 777.23 162.8C788.23 162.8 795.83 157.9 800.13 148.1L790.13 144.4C787.13 149.6 783.03 152.2 777.93 152.2C770.73 152.2 766.33 146.9 766.03 140.8H800.73V135.7ZM777.23 121.4C783.03 121.4 786.63 124.6 788.03 131H766.33C767.23 125.7 771.33 121.4 777.23 121.4ZM824.306 144.1C824.306 128.8 829.906 121.9 837.806 121.9C839.706 121.9 841.506 122.4 843.006 123.3L845.306 111.8C843.106 111.1 841.106 110.8 839.206 110.8C833.306 110.8 827.906 114.1 824.306 119.8V111.6H811.906V162H824.306V144.1ZM868.577 162H879.777L896.877 111.6H884.377L874.177 146.7L863.977 111.6H851.477L868.577 162ZM905.347 102.8C908.447 105.9 913.647 105.9 916.747 102.8C919.847 99.7 919.847 94.5 916.747 91.4C913.647 88.3 908.447 88.3 905.347 91.4C902.247 94.5 902.247 99.7 905.347 102.8ZM904.847 162H917.247V111.6H904.847V162ZM965.602 143.9C962.902 149.4 958.902 152.2 953.802 152.2C946.202 152.2 942.202 146 942.202 136.8C942.202 127.6 946.202 121.4 953.802 121.4C958.902 121.4 962.902 124.2 965.602 129.7L976.702 125.2C972.802 115.6 965.202 110.8 953.802 110.8C945.902 110.8 939.902 113.3 935.602 118.2C931.302 123.1 929.202 129.3 929.202 136.8C929.202 144.3 931.302 150.5 935.602 155.4C939.902 160.3 945.902 162.8 953.802 162.8C965.202 162.8 972.802 158 976.702 148.4L965.602 143.9ZM1032.76 135.7C1032.76 130 1030.96 124.1 1027.36 119.2C1023.76 114.1 1017.26 110.8 1009.26 110.8C991.962 110.8 985.062 124.8 985.062 136.8C985.062 148.8 991.962 162.8 1009.26 162.8C1020.26 162.8 1027.86 157.9 1032.16 148.1L1022.16 144.4C1019.16 149.6 1015.06 152.2 1009.96 152.2C1002.76 152.2 998.362 146.9 998.062 140.8H1032.76V135.7ZM1009.26 121.4C1015.06 121.4 1018.66 124.6 1020.06 131H998.362C999.262 125.7 1003.36 121.4 1009.26 121.4ZM1059.43 110.8C1054.73 110.8 1050.83 112.2 1047.83 115.1C1044.83 118 1043.33 121.4 1043.33 125.5C1043.33 132.7 1047.13 136.4 1053.53 139.1C1055.43 139.9 1058.93 141 1060.63 141.8C1061.53 142.1 1062.53 142.5 1063.43 143C1065.33 143.9 1066.13 145.2 1066.13 146.8C1066.13 150.4 1064.03 152.2 1059.93 152.2C1055.23 152.2 1051.83 149.4 1049.83 143.9L1039.93 149.2C1041.43 152.8 1043.93 156 1047.43 158.7C1050.93 161.4 1055.13 162.8 1059.93 162.8C1065.23 162.8 1069.53 161.2 1072.83 157.9C1076.13 154.6 1077.83 150.7 1077.83 146C1077.83 142.5 1076.23 139.5 1074.73 137.8C1074.03 136.9 1072.83 136.1 1071.13 135.2C1069.53 134.3 1068.33 133.6 1067.53 133.3L1063.23 131.8L1059.63 130.5C1056.43 129.3 1054.83 127.7 1054.83 125.6C1054.83 122.9 1056.93 121.4 1059.43 121.4C1062.73 121.4 1065.53 122.9 1067.83 125.8L1075.23 119C1072.03 114.1 1066.13 110.8 1059.43 110.8Z" fill="#202020"/>
<path d="M164.317 176.693L76.9169 185.193C73.9169 185.493 72.9169 187.793 75.4169 189.493C81.3169 193.393 94.9169 198.793 124.917 197.593C163.117 196.093 170.517 187.293 171.117 181.393C171.317 178.393 167.317 176.393 164.317 176.693Z" fill="#010002"/>
<path d="M110.617 178.693C108.317 178.693 106.517 176.893 106.517 174.593C105.817 124.093 75.0169 68.2928 74.7169 67.7928C73.6169 65.7928 74.3169 63.2928 76.3169 62.1928C78.3169 61.0928 80.8169 61.7928 81.9169 63.7928C83.2169 66.1928 114.117 121.993 114.717 174.593C114.817 176.793 112.917 178.693 110.617 178.693Z" fill="#010002"/>
<path d="M112.317 75.3927C100.717 66.8927 90.7169 60.8926 85.0169 57.7926C82.3169 56.2926 81.8169 56.9926 83.8169 59.2926C89.2169 65.7926 93.9169 73.3927 97.9169 81.3927C99.3169 84.0927 102.217 84.7926 104.917 83.2926C106.717 82.2926 108.917 81.1926 111.517 80.2926C114.317 79.2926 114.717 77.2927 112.317 75.3927Z" fill="#010002"/>
<path d="M105.617 99.5924C108.817 108.292 111.317 117.092 113.417 125.492C114.117 128.492 116.817 129.692 119.717 128.492C126.117 125.792 137.017 122.592 153.817 121.192C156.817 120.892 157.917 118.792 156.017 116.392C147.917 106.192 138.817 97.0924 129.717 89.1924C127.417 87.1924 123.017 85.8924 120.017 86.4924C114.617 87.6924 110.717 89.3924 108.117 90.9924C105.317 92.5924 104.517 96.6924 105.617 99.5924Z" fill="#010002"/>
<path d="M167.617 133.593C166.117 130.993 162.217 128.893 159.217 129.093C139.517 130.293 127.817 133.993 121.917 136.493C119.117 137.693 117.317 141.493 117.717 144.593C118.717 151.993 120.317 164.593 120.717 169.093C121.017 172.093 123.217 173.093 126.017 171.893C140.217 165.593 164.317 166.393 175.117 167.193C178.117 167.393 180.217 165.193 179.417 162.293C176.917 152.093 172.817 142.493 167.617 133.593Z" fill="#010002"/>
</svg>
