<?xml version="1.0" encoding="utf-8"?>
<!-- Generator: Adobe Illustrator 22.1.0, SVG Export Plug-In . SVG Version: 6.00 Build 0)  -->
<svg version="1.1" id="Calque_1" xmlns="http://www.w3.org/2000/svg" xmlns:xlink="http://www.w3.org/1999/xlink" x="0px" y="0px"
	 viewBox="0 0 600 200" style="enable-background:new 0 0 600 200;" xml:space="preserve">
<style type="text/css">
	.st0{fill:#E8BB00;}
	.st1{fill:#010002;}
</style>
<rect class="st0" width="600" height="200"/>
<g>
	<g>
		<path d="M198.7,45.1h13.5c15.5,0,24.7,8.4,24.7,25.1c0,16.7-9.2,25.5-24.2,25.5h-14V45.1z M211.7,88.4c10.2,0,16-5.8,16-18.2
			c0-12.4-5.9-17.8-16-17.8h-3.9v36.1H211.7z"/>
		<path d="M243.9,76.7c0-12.4,8.6-20,17.5-20c10.3,0,15.7,7.4,15.7,18c0,1.7-0.2,3.4-0.4,4.3h-24.1c0.7,6.7,5.1,10.6,11.2,10.6
			c3.3,0,6-1,8.8-2.8l3,5.5c-3.6,2.4-8.2,4.1-13,4.1C252.1,96.6,243.9,89.2,243.9,76.7z M269.4,73c0-5.9-2.6-9.4-7.8-9.4
			c-4.4,0-8.3,3.3-9.1,9.4H269.4z M256.8,46.9l11.4-13.5l6.1,5.9l-13.1,12L256.8,46.9z"/>
		<path d="M285.6,57.7h7.3l0.7,6.8h0.2c2.7-5,6.7-7.7,10.8-7.7c1.9,0,3.2,0.2,4.3,0.8l-1.5,7.7c-1.3-0.4-2.3-0.6-3.9-0.6
			c-3,0-6.7,2.1-9,7.9v23.2h-8.9V57.7z"/>
		<path d="M313.5,46c0-3,2.4-5,5.5-5c3.2,0,5.5,2,5.5,5c0,2.9-2.4,5-5.5,5C315.8,51,313.5,48.9,313.5,46z M314.5,57.7h8.9v38h-8.9
			V57.7z"/>
		<path d="M330,57.7h9l6,19.7c1.1,3.7,2.2,7.6,3.2,11.5h0.3c1.1-3.8,2.2-7.7,3.2-11.5l6-19.7h8.6l-12.9,38h-10.3L330,57.7z"/>
		<path d="M370.5,76.7c0-12.4,8.6-20,17.5-20c10.3,0,15.7,7.4,15.7,18c0,1.7-0.2,3.4-0.4,4.3h-24.1c0.7,6.7,5.1,10.6,11.2,10.6
			c3.2,0,6-1,8.8-2.8l3,5.5c-3.6,2.4-8.2,4.1-13,4.1C378.8,96.6,370.5,89.2,370.5,76.7z M396,73c0-5.9-2.6-9.4-7.8-9.4
			c-4.4,0-8.3,3.3-9.1,9.4H396z"/>
		<path d="M411.8,81.5V57.7h8.9v22.7c0,6.3,1.8,8.6,5.9,8.6c3.3,0,5.5-1.5,8.4-5.3v-26h8.9v38h-7.3l-0.7-5.6h-0.2
			c-3.3,4-7,6.5-12.2,6.5C415.4,96.6,411.8,91.1,411.8,81.5z"/>
		<path d="M455.3,57.7h7.3l0.7,6.8h0.2c2.7-5,6.7-7.7,10.8-7.7c1.9,0,3.2,0.2,4.3,0.8l-1.5,7.7c-1.3-0.4-2.3-0.6-3.9-0.6
			c-3,0-6.7,2.1-9,7.9v23.2h-8.9V57.7z"/>
		<path d="M480.4,91.3l4.1-5.7c3.4,2.6,6.6,4.2,10.5,4.2c4.1,0,6.1-2,6.1-4.6c0-3.2-4.1-4.6-8.2-6.2c-5-1.9-10.7-4.7-10.7-11.1
			c0-6.6,5.3-11.4,13.8-11.4c5.3,0,9.5,2.2,12.6,4.6l-4.1,5.5c-2.7-2-5.3-3.3-8.3-3.3c-3.8,0-5.6,1.8-5.6,4.2c0,3,3.8,4.1,8,5.7
			c5.1,1.9,10.9,4.4,10.9,11.5c0,6.5-5.2,11.8-14.8,11.8C489.6,96.6,484.2,94.4,480.4,91.3z"/>
		<path d="M195.3,149.2l5.2-6.2c3.6,3.5,8.5,5.8,13.2,5.8c5.7,0,8.8-2.6,8.8-6.5c0-4.2-3.3-5.5-7.9-7.4l-6.9-3
			c-5-2.1-10.2-6-10.2-13.4c0-8.1,7.1-14.3,17-14.3c5.9,0,11.6,2.4,15.6,6.5l-4.6,5.7c-3.2-2.7-6.7-4.3-11-4.3
			c-4.8,0-7.9,2.2-7.9,5.9c0,4,3.9,5.4,8,7.2l6.8,2.9c6,2.5,10.2,6.3,10.2,13.7c0,8.2-6.8,15-18.2,15
			C206.7,156.6,200.1,153.9,195.3,149.2z"/>
		<path d="M237.6,136.7c0-12.4,8.6-20,17.5-20c10.3,0,15.7,7.4,15.7,18c0,1.7-0.2,3.4-0.4,4.3h-24.1c0.7,6.7,5.1,10.6,11.2,10.6
			c3.3,0,6-1,8.8-2.8l3,5.5c-3.6,2.4-8.2,4.1-13,4.1C245.9,156.6,237.6,149.2,237.6,136.7z M263.1,133c0-5.9-2.6-9.4-7.8-9.4
			c-4.4,0-8.3,3.3-9.1,9.4H263.1z"/>
		<path d="M279.4,117.7h7.3l0.7,6.8h0.2c2.7-5,6.7-7.7,10.8-7.7c1.9,0,3.2,0.2,4.3,0.8l-1.5,7.7c-1.3-0.4-2.3-0.6-3.9-0.6
			c-3,0-6.7,2.1-9,7.9v23.2h-8.9V117.7z"/>
		<path d="M303.5,117.7h9l6,19.7c1.1,3.7,2.2,7.6,3.2,11.5h0.3c1.1-3.8,2.2-7.7,3.2-11.5l6-19.7h8.6l-12.9,38h-10.3L303.5,117.7z"/>
		<path d="M345.6,106c0-3,2.4-5,5.5-5c3.2,0,5.5,2,5.5,5c0,2.9-2.4,5-5.5,5C347.9,111,345.6,108.9,345.6,106z M346.6,117.7h8.9v38
			h-8.9V117.7z"/>
		<path d="M364.3,136.7c0-12.7,8.9-20,19.1-20c4.8,0,8.4,1.9,11.1,4.3l-4.3,5.8c-2-1.8-3.9-2.8-6.3-2.8c-6.1,0-10.4,5.1-10.4,12.7
			s4.2,12.6,10.1,12.6c3,0,5.7-1.5,7.9-3.3l3.6,5.9c-3.6,3.2-8.1,4.7-12.4,4.7C372.3,156.6,364.3,149.3,364.3,136.7z"/>
		<path d="M400,136.7c0-12.4,8.6-20,17.5-20c10.3,0,15.7,7.4,15.7,18c0,1.7-0.2,3.4-0.4,4.3h-24.1c0.7,6.7,5.1,10.6,11.2,10.6
			c3.2,0,6-1,8.8-2.8l3,5.5c-3.6,2.4-8.2,4.1-13,4.1C408.3,156.6,400,149.2,400,136.7z M425.6,133c0-5.9-2.6-9.4-7.8-9.4
			c-4.4,0-8.3,3.3-9.1,9.4H425.6z"/>
		<path d="M438,151.3l4.1-5.7c3.4,2.6,6.6,4.2,10.5,4.2c4.1,0,6.1-2,6.1-4.6c0-3.2-4.1-4.6-8.2-6.2c-5-1.9-10.7-4.7-10.7-11.1
			c0-6.6,5.3-11.4,13.8-11.4c5.3,0,9.5,2.2,12.6,4.6l-4.1,5.5c-2.7-2-5.3-3.3-8.3-3.3c-3.8,0-5.6,1.8-5.6,4.2c0,3,3.8,4.1,8,5.7
			c5.1,1.9,10.9,4.4,10.9,11.5c0,6.5-5.2,11.8-14.8,11.8C447.2,156.6,441.7,154.4,438,151.3z"/>
	</g>
</g>
<g>
	<path class="st1" d="M132.9,154l-87.4,8.5c-3,0.3-4,2.6-1.5,4.3c5.9,3.9,19.5,9.3,49.5,8.1c38.2-1.5,45.6-10.3,46.2-16.2
		C139.9,155.7,135.9,153.7,132.9,154z"/>
	<g>
		<path class="st1" d="M79.2,156c-2.3,0-4.1-1.8-4.1-4.1C74.4,101.4,43.6,45.6,43.3,45.1c-1.1-2-0.4-4.5,1.6-5.6
			c2-1.1,4.5-0.4,5.6,1.6c1.3,2.4,32.2,58.2,32.8,110.8C83.4,154.1,81.5,156,79.2,156z"/>
	</g>
	<g>
		<path class="st1" d="M80.9,52.7c-11.6-8.5-21.6-14.5-27.3-17.6c-2.7-1.5-3.2-0.8-1.2,1.5c5.4,6.5,10.1,14.1,14.1,22.1
			c1.4,2.7,4.3,3.4,7,1.9c1.8-1,4-2.1,6.6-3C82.9,56.6,83.3,54.6,80.9,52.7z"/>
		<path class="st1" d="M74.2,76.9c3.2,8.7,5.7,17.5,7.8,25.9c0.7,3,3.4,4.2,6.3,3c6.4-2.7,17.3-5.9,34.1-7.3c3-0.3,4.1-2.4,2.2-4.8
			c-8.1-10.2-17.2-19.3-26.3-27.2c-2.3-2-6.7-3.3-9.7-2.7c-5.4,1.2-9.3,2.9-11.9,4.5C73.9,69.9,73.1,74,74.2,76.9z"/>
		<path class="st1" d="M136.2,110.9c-1.5-2.6-5.4-4.7-8.4-4.5c-19.7,1.2-31.4,4.9-37.3,7.4c-2.8,1.2-4.6,5-4.2,8.1
			c1,7.4,2.6,20,3,24.5c0.3,3,2.5,4,5.3,2.8c14.2-6.3,38.3-5.5,49.1-4.7c3,0.2,5.1-2,4.3-4.9C145.5,129.4,141.4,119.8,136.2,110.9z"
			/>
	</g>
</g>
</svg>
